<svg xmlns="http://www.w3.org/2000/svg" xmlns:xlink="http://www.w3.org/1999/xlink" width="500" zoomAndPan="magnify" viewBox="0 0 112.5 30" height="500" preserveAspectRatio="xMidYMid meet" version="1.2"><defs><clipPath id="337bd7cead"><path d="M 6 9.230469 L 112.003906 9.230469 L 112.003906 29.933594 L 6 29.933594 Z M 6 9.230469 "/></clipPath></defs><g id="854b8933e4"><g clip-rule="nonzero" clip-path="url(#337bd7cead)"><path style=" stroke:none;fill-rule:nonzero;fill:#28c8a8;fill-opacity:1;" d="M 183.53125 41.1875 C 230.878906 41.1875 236.5 41.363281 255.210938 42.234375 C 303.269531 44.414062 325.71875 67.21875 327.917969 114.921875 C 328.769531 133.613281 328.929688 139.21875 328.929688 186.566406 C 328.929688 233.953125 328.753906 239.554688 327.902344 258.246094 C 325.703125 305.898438 303.320312 328.738281 255.210938 330.9375 C 236.5 331.789062 230.914062 331.964844 183.53125 331.964844 C 136.183594 331.964844 130.578125 331.789062 111.886719 330.9375 C 63.703125 328.738281 41.378906 305.824219 39.179688 258.230469 C 38.328125 239.539062 38.148438 233.933594 38.148438 186.566406 C 38.148438 139.21875 38.328125 133.613281 39.179688 114.921875 C 41.378906 67.21875 63.773438 44.394531 111.886719 42.214844 C 130.578125 41.363281 136.183594 41.1875 183.53125 41.1875 Z M 183.53125 9.230469 C 135.382812 9.230469 129.355469 9.441406 110.433594 10.292969 C 46.023438 13.253906 10.21875 48.988281 7.277344 113.449219 C 6.40625 132.371094 6.210938 138.402344 6.210938 186.566406 C 6.210938 234.730469 6.40625 240.777344 7.277344 259.683594 C 10.21875 324.089844 45.953125 359.878906 110.414062 362.839844 C 129.355469 363.691406 135.382812 363.902344 183.53125 363.902344 C 231.695312 363.902344 237.742188 363.691406 256.664062 362.839844 C 321.003906 359.878906 356.878906 324.144531 359.804688 259.683594 C 360.671875 240.777344 360.867188 234.730469 360.867188 186.566406 C 360.867188 138.402344 360.671875 132.371094 359.804688 113.46875 C 356.914062 49.113281 321.144531 13.273438 256.683594 10.292969 C 237.742188 9.40625 231.695312 9.230469 183.53125 9.230469 Z M 183.53125 95.503906 C 182.039062 95.503906 180.550781 95.542969 179.0625 95.613281 C 177.574219 95.6875 176.089844 95.796875 174.605469 95.941406 C 173.121094 96.089844 171.644531 96.273438 170.167969 96.488281 C 168.695312 96.707031 167.226562 96.964844 165.765625 97.253906 C 164.304688 97.546875 162.851562 97.871094 161.40625 98.234375 C 159.957031 98.59375 158.523438 98.992188 157.097656 99.425781 C 155.671875 99.859375 154.257812 100.324219 152.851562 100.828125 C 151.449219 101.328125 150.058594 101.867188 148.683594 102.4375 C 147.304688 103.007812 145.945312 103.609375 144.597656 104.246094 C 143.25 104.882812 141.917969 105.554688 140.605469 106.257812 C 139.289062 106.960938 137.992188 107.695312 136.714844 108.460938 C 135.4375 109.226562 134.179688 110.023438 132.9375 110.851562 C 131.699219 111.679688 130.480469 112.539062 129.285156 113.425781 C 128.089844 114.3125 126.914062 115.230469 125.761719 116.175781 C 124.609375 117.121094 123.480469 118.09375 122.378906 119.09375 C 121.273438 120.09375 120.195312 121.121094 119.140625 122.175781 C 118.085938 123.230469 117.058594 124.308594 116.058594 125.414062 C 115.058594 126.515625 114.085938 127.644531 113.140625 128.796875 C 112.191406 129.949219 111.277344 131.125 110.390625 132.320312 C 109.5 133.519531 108.644531 134.734375 107.816406 135.976562 C 106.988281 137.214844 106.191406 138.472656 105.425781 139.75 C 104.65625 141.03125 103.921875 142.324219 103.222656 143.640625 C 102.519531 144.953125 101.847656 146.285156 101.210938 147.632812 C 100.574219 148.980469 99.96875 150.34375 99.398438 151.71875 C 98.828125 153.097656 98.292969 154.484375 97.792969 155.890625 C 97.289062 157.292969 96.820312 158.707031 96.390625 160.132812 C 95.957031 161.558594 95.558594 162.996094 95.199219 164.441406 C 94.835938 165.886719 94.507812 167.339844 94.21875 168.800781 C 93.925781 170.261719 93.671875 171.730469 93.453125 173.207031 C 93.234375 174.679688 93.054688 176.160156 92.90625 177.640625 C 92.761719 179.125 92.652344 180.609375 92.578125 182.097656 C 92.503906 183.585938 92.46875 185.078125 92.46875 186.566406 C 92.46875 188.058594 92.503906 189.546875 92.578125 191.035156 C 92.652344 192.523438 92.761719 194.007812 92.90625 195.492188 C 93.054688 196.976562 93.234375 198.453125 93.453125 199.929688 C 93.671875 201.402344 93.925781 202.871094 94.21875 204.332031 C 94.507812 205.792969 94.835938 207.246094 95.199219 208.695312 C 95.558594 210.140625 95.957031 211.574219 96.390625 213 C 96.820312 214.425781 97.289062 215.84375 97.792969 217.246094 C 98.292969 218.648438 98.828125 220.039062 99.398438 221.414062 C 99.96875 222.792969 100.574219 224.152344 101.210938 225.5 C 101.847656 226.847656 102.519531 228.179688 103.222656 229.492188 C 103.921875 230.808594 104.65625 232.105469 105.425781 233.382812 C 106.191406 234.660156 106.988281 235.917969 107.816406 237.160156 C 108.644531 238.398438 109.5 239.617188 110.390625 240.8125 C 111.277344 242.011719 112.191406 243.183594 113.140625 244.335938 C 114.085938 245.488281 115.058594 246.617188 116.058594 247.722656 C 117.058594 248.824219 118.085938 249.902344 119.140625 250.957031 C 120.195312 252.011719 121.273438 253.039062 122.378906 254.039062 C 123.480469 255.039062 124.609375 256.015625 125.761719 256.960938 C 126.914062 257.90625 128.089844 258.820312 129.285156 259.710938 C 130.480469 260.597656 131.699219 261.453125 132.9375 262.28125 C 134.179688 263.109375 135.4375 263.90625 136.714844 264.675781 C 137.992188 265.441406 139.289062 266.175781 140.605469 266.875 C 141.917969 267.578125 143.25 268.25 144.597656 268.886719 C 145.945312 269.523438 147.304688 270.128906 148.683594 270.699219 C 150.058594 271.269531 151.449219 271.804688 152.851562 272.304688 C 154.257812 272.808594 155.671875 273.277344 157.097656 273.707031 C 158.523438 274.140625 159.957031 274.539062 161.40625 274.902344 C 162.851562 275.261719 164.304688 275.589844 165.765625 275.878906 C 167.226562 276.171875 168.695312 276.425781 170.167969 276.644531 C 171.644531 276.863281 173.121094 277.042969 174.605469 277.191406 C 176.089844 277.335938 177.574219 277.445312 179.0625 277.519531 C 180.550781 277.59375 182.039062 277.628906 183.53125 277.628906 C 185.019531 277.628906 186.511719 277.59375 188 277.519531 C 189.488281 277.445312 190.972656 277.335938 192.457031 277.191406 C 193.941406 277.042969 195.417969 276.863281 196.890625 276.644531 C 198.367188 276.425781 199.835938 276.171875 201.296875 275.878906 C 202.757812 275.589844 204.210938 275.261719 205.65625 274.902344 C 207.101562 274.539062 208.539062 274.140625 209.964844 273.707031 C 211.390625 273.277344 212.804688 272.808594 214.207031 272.304688 C 215.613281 271.804688 217.003906 271.269531 218.378906 270.699219 C 219.753906 270.128906 221.117188 269.523438 222.464844 268.886719 C 223.8125 268.25 225.144531 267.578125 226.457031 266.875 C 227.773438 266.175781 229.066406 265.441406 230.347656 264.675781 C 231.625 263.90625 232.882812 263.109375 234.121094 262.28125 C 235.363281 261.453125 236.578125 260.597656 237.777344 259.710938 C 238.972656 258.820312 240.148438 257.90625 241.300781 256.960938 C 242.453125 256.015625 243.582031 255.039062 244.683594 254.039062 C 245.789062 253.039062 246.867188 252.011719 247.921875 250.957031 C 248.976562 249.902344 250.003906 248.824219 251.003906 247.722656 C 252.003906 246.617188 252.976562 245.488281 253.921875 244.335938 C 254.867188 243.183594 255.785156 242.011719 256.671875 240.8125 C 257.5625 239.617188 258.417969 238.398438 259.246094 237.160156 C 260.074219 235.917969 260.871094 234.660156 261.636719 233.382812 C 262.402344 232.105469 263.136719 230.808594 263.839844 229.492188 C 264.542969 228.179688 265.214844 226.847656 265.851562 225.5 C 266.488281 224.152344 267.089844 222.792969 267.660156 221.414062 C 268.230469 220.039062 268.769531 218.648438 269.269531 217.246094 C 269.773438 215.84375 270.238281 214.425781 270.671875 213 C 271.105469 211.574219 271.503906 210.140625 271.863281 208.691406 C 272.226562 207.246094 272.554688 205.792969 272.84375 204.332031 C 273.132812 202.871094 273.390625 201.402344 273.609375 199.929688 C 273.828125 198.453125 274.007812 196.976562 274.15625 195.492188 C 274.300781 194.007812 274.410156 192.523438 274.484375 191.035156 C 274.558594 189.546875 274.59375 188.058594 274.59375 186.566406 C 274.59375 185.078125 274.558594 183.585938 274.484375 182.097656 C 274.410156 180.609375 274.300781 179.125 274.15625 177.640625 C 274.007812 176.160156 273.828125 174.679688 273.609375 173.207031 C 273.390625 171.730469 273.132812 170.261719 272.84375 168.800781 C 272.554688 167.339844 272.226562 165.886719 271.863281 164.441406 C 271.503906 162.996094 271.105469 161.558594 270.671875 160.132812 C 270.238281 158.707031 269.773438 157.292969 269.269531 155.890625 C 268.769531 154.484375 268.230469 153.097656 267.660156 151.71875 C 267.089844 150.34375 266.488281 148.980469 265.851562 147.632812 C 265.214844 146.285156 264.542969 144.953125 263.839844 143.640625 C 263.136719 142.324219 262.402344 141.03125 261.636719 139.75 C 260.871094 138.472656 260.074219 137.214844 259.246094 135.976562 C 258.417969 134.734375 257.5625 133.519531 256.671875 132.320312 C 255.785156 131.125 254.867188 129.949219 253.921875 128.796875 C 252.976562 127.644531 252.003906 126.515625 251.003906 125.414062 C 250.003906 124.308594 248.976562 123.230469 247.921875 122.175781 C 246.867188 121.121094 245.789062 120.09375 244.683594 119.09375 C 243.582031 118.09375 242.453125 117.121094 241.300781 116.175781 C 240.148438 115.230469 238.972656 114.3125 237.777344 113.425781 C 236.578125 112.539062 235.363281 111.679688 234.121094 110.851562 C 232.882812 110.023438 231.625 109.226562 230.347656 108.460938 C 229.066406 107.695312 227.773438 106.960938 226.457031 106.257812 C 225.144531 105.554688 223.8125 104.882812 222.464844 104.246094 C 221.117188 103.609375 219.753906 103.007812 218.378906 102.4375 C 217.003906 101.867188 215.613281 101.328125 214.207031 100.828125 C 212.804688 100.324219 211.390625 99.859375 209.964844 99.425781 C 208.539062 98.992188 207.101562 98.59375 205.65625 98.234375 C 204.210938 97.871094 202.757812 97.546875 201.296875 97.253906 C 199.835938 96.964844 198.367188 96.707031 196.890625 96.488281 C 195.417969 96.273438 193.941406 96.089844 192.457031 95.941406 C 190.972656 95.796875 189.488281 95.6875 188 95.613281 C 186.511719 95.542969 185.019531 95.503906 183.53125 95.503906 Z M 183.53125 245.671875 C 181.59375 245.671875 179.664062 245.578125 177.738281 245.390625 C 175.8125 245.199219 173.898438 244.914062 172 244.539062 C 170.101562 244.160156 168.226562 243.691406 166.375 243.128906 C 164.519531 242.566406 162.699219 241.914062 160.910156 241.175781 C 159.125 240.433594 157.375 239.605469 155.667969 238.695312 C 153.960938 237.78125 152.300781 236.789062 150.691406 235.710938 C 149.082031 234.636719 147.53125 233.484375 146.035156 232.257812 C 144.539062 231.027344 143.105469 229.730469 141.738281 228.363281 C 140.367188 226.992188 139.070312 225.558594 137.839844 224.0625 C 136.613281 222.566406 135.460938 221.015625 134.386719 219.40625 C 133.308594 217.796875 132.316406 216.136719 131.402344 214.429688 C 130.492188 212.722656 129.664062 210.972656 128.921875 209.1875 C 128.183594 207.398438 127.53125 205.578125 126.96875 203.726562 C 126.40625 201.871094 125.9375 199.996094 125.558594 198.097656 C 125.183594 196.199219 124.898438 194.285156 124.710938 192.359375 C 124.519531 190.433594 124.425781 188.503906 124.425781 186.566406 C 124.425781 184.632812 124.519531 182.699219 124.710938 180.773438 C 124.898438 178.847656 125.183594 176.933594 125.558594 175.035156 C 125.9375 173.136719 126.40625 171.261719 126.96875 169.410156 C 127.53125 167.558594 128.183594 165.738281 128.921875 163.949219 C 129.664062 162.160156 130.492188 160.410156 131.402344 158.703125 C 132.316406 156.996094 133.308594 155.339844 134.386719 153.730469 C 135.460938 152.121094 136.613281 150.566406 137.839844 149.070312 C 139.070312 147.574219 140.367188 146.140625 141.738281 144.773438 C 143.105469 143.402344 144.539062 142.105469 146.035156 140.878906 C 147.53125 139.648438 149.082031 138.496094 150.691406 137.421875 C 152.304688 136.347656 153.960938 135.351562 155.667969 134.441406 C 157.375 133.527344 159.125 132.699219 160.910156 131.960938 C 162.699219 131.21875 164.519531 130.566406 166.375 130.003906 C 168.226562 129.445312 170.101562 128.972656 172 128.597656 C 173.898438 128.21875 175.8125 127.933594 177.738281 127.746094 C 179.664062 127.554688 181.59375 127.460938 183.53125 127.460938 C 185.464844 127.460938 187.398438 127.554688 189.324219 127.746094 C 191.25 127.933594 193.164062 128.21875 195.0625 128.597656 C 196.960938 128.972656 198.835938 129.445312 200.6875 130.003906 C 202.542969 130.566406 204.363281 131.21875 206.148438 131.960938 C 207.9375 132.699219 209.6875 133.527344 211.394531 134.441406 C 213.101562 135.351562 214.757812 136.347656 216.367188 137.421875 C 217.976562 138.496094 219.53125 139.648438 221.027344 140.878906 C 222.523438 142.105469 223.957031 143.402344 225.324219 144.773438 C 226.695312 146.140625 227.992188 147.574219 229.222656 149.070312 C 230.449219 150.566406 231.601562 152.121094 232.675781 153.730469 C 233.75 155.339844 234.746094 156.996094 235.65625 158.703125 C 236.570312 160.410156 237.398438 162.160156 238.136719 163.949219 C 238.878906 165.738281 239.53125 167.558594 240.09375 169.410156 C 240.652344 171.261719 241.125 173.136719 241.5 175.035156 C 241.878906 176.933594 242.164062 178.847656 242.351562 180.773438 C 242.542969 182.699219 242.636719 184.632812 242.636719 186.566406 C 242.636719 188.503906 242.542969 190.433594 242.351562 192.359375 C 242.164062 194.285156 241.878906 196.199219 241.5 198.097656 C 241.125 199.996094 240.652344 201.871094 240.09375 203.726562 C 239.53125 205.578125 238.878906 207.398438 238.136719 209.1875 C 237.398438 210.972656 236.570312 212.722656 235.65625 214.429688 C 234.746094 216.136719 233.75 217.796875 232.675781 219.40625 C 231.601562 221.015625 230.449219 222.566406 229.222656 224.0625 C 227.992188 225.558594 226.695312 226.992188 225.324219 228.363281 C 223.957031 229.730469 222.523438 231.027344 221.027344 232.257812 C 219.53125 233.484375 217.976562 234.636719 216.367188 235.710938 C 214.757812 236.789062 213.101562 237.78125 211.394531 238.695312 C 209.6875 239.605469 207.9375 240.433594 206.148438 241.175781 C 204.363281 241.914062 202.542969 242.566406 200.6875 243.128906 C 198.835938 243.691406 196.960938 244.160156 195.0625 244.539062 C 193.164062 244.914062 191.25 245.199219 189.324219 245.390625 C 187.398438 245.578125 185.464844 245.671875 183.53125 245.671875 Z M 278.210938 70.640625 C 277.515625 70.640625 276.820312 70.675781 276.125 70.742188 C 275.429688 70.8125 274.742188 70.914062 274.058594 71.050781 C 273.375 71.183594 272.699219 71.355469 272.035156 71.554688 C 271.367188 71.757812 270.710938 71.992188 270.066406 72.257812 C 269.421875 72.523438 268.792969 72.820312 268.179688 73.152344 C 267.5625 73.480469 266.964844 73.835938 266.386719 74.222656 C 265.808594 74.609375 265.246094 75.023438 264.707031 75.464844 C 264.171875 75.910156 263.652344 76.375 263.160156 76.867188 C 262.667969 77.359375 262.199219 77.875 261.757812 78.414062 C 261.316406 78.953125 260.902344 79.511719 260.511719 80.09375 C 260.125 80.671875 259.765625 81.269531 259.4375 81.882812 C 259.109375 82.496094 258.8125 83.125 258.546875 83.769531 C 258.277344 84.414062 258.042969 85.070312 257.839844 85.738281 C 257.636719 86.402344 257.46875 87.078125 257.332031 87.761719 C 257.195312 88.445312 257.09375 89.132812 257.023438 89.828125 C 256.957031 90.519531 256.921875 91.214844 256.921875 91.914062 C 256.921875 92.609375 256.957031 93.304688 257.023438 94 C 257.089844 94.691406 257.191406 95.382812 257.328125 96.066406 C 257.464844 96.75 257.632812 97.425781 257.835938 98.089844 C 258.039062 98.757812 258.273438 99.414062 258.539062 100.058594 C 258.804688 100.703125 259.101562 101.332031 259.429688 101.945312 C 259.757812 102.5625 260.117188 103.15625 260.503906 103.738281 C 260.890625 104.316406 261.304688 104.875 261.746094 105.414062 C 262.1875 105.953125 262.65625 106.46875 263.148438 106.964844 C 263.640625 107.457031 264.15625 107.925781 264.695312 108.367188 C 265.234375 108.808594 265.792969 109.222656 266.371094 109.613281 C 266.953125 110 267.546875 110.355469 268.164062 110.6875 C 268.777344 111.015625 269.40625 111.3125 270.050781 111.578125 C 270.695312 111.847656 271.347656 112.082031 272.015625 112.285156 C 272.683594 112.488281 273.359375 112.65625 274.042969 112.792969 C 274.726562 112.929688 275.414062 113.03125 276.109375 113.097656 C 276.800781 113.167969 277.496094 113.203125 278.191406 113.203125 C 278.890625 113.203125 279.585938 113.167969 280.277344 113.101562 C 280.972656 113.03125 281.660156 112.929688 282.34375 112.792969 C 283.027344 112.65625 283.703125 112.488281 284.371094 112.285156 C 285.039062 112.085938 285.691406 111.851562 286.335938 111.582031 C 286.980469 111.316406 287.609375 111.019531 288.226562 110.691406 C 288.839844 110.363281 289.4375 110.003906 290.015625 109.617188 C 290.59375 109.230469 291.15625 108.816406 291.695312 108.371094 C 292.230469 107.929688 292.746094 107.460938 293.242188 106.96875 C 293.734375 106.476562 294.203125 105.960938 294.644531 105.421875 C 295.085938 104.882812 295.5 104.324219 295.886719 103.746094 C 296.273438 103.164062 296.632812 102.570312 296.960938 101.953125 C 297.289062 101.339844 297.585938 100.710938 297.855469 100.066406 C 298.121094 99.421875 298.355469 98.765625 298.558594 98.101562 C 298.757812 97.433594 298.929688 96.757812 299.066406 96.074219 C 299.199219 95.390625 299.304688 94.703125 299.371094 94.007812 C 299.441406 93.316406 299.472656 92.621094 299.472656 91.921875 C 299.472656 91.226562 299.441406 90.53125 299.371094 89.835938 C 299.304688 89.144531 299.199219 88.453125 299.066406 87.769531 C 298.929688 87.085938 298.757812 86.410156 298.558594 85.746094 C 298.355469 85.078125 298.121094 84.421875 297.855469 83.777344 C 297.585938 83.136719 297.289062 82.503906 296.960938 81.890625 C 296.632812 81.277344 296.273438 80.679688 295.886719 80.097656 C 295.5 79.519531 295.085938 78.960938 294.644531 78.421875 C 294.203125 77.882812 293.734375 77.367188 293.242188 76.875 C 292.746094 76.382812 292.230469 75.914062 291.695312 75.472656 C 291.15625 75.03125 290.59375 74.617188 290.015625 74.226562 C 289.4375 73.839844 288.839844 73.484375 288.226562 73.15625 C 287.609375 72.824219 286.980469 72.527344 286.335938 72.261719 C 285.691406 71.996094 285.039062 71.761719 284.371094 71.558594 C 283.703125 71.355469 283.027344 71.1875 282.34375 71.050781 C 281.660156 70.914062 280.972656 70.8125 280.277344 70.746094 C 279.585938 70.675781 278.890625 70.640625 278.191406 70.640625 Z M 278.210938 70.640625 "/></g></g></svg>