<svg xmlns="http://www.w3.org/2000/svg" xmlns:xlink="http://www.w3.org/1999/xlink" width="500" zoomAndPan="magnify" viewBox="0 0 112.5 30" height="500" preserveAspectRatio="xMidYMid meet" version="1.2"><defs><clipPath id="d04db3968b"><path d="M 3.480469 3.546875 L 112.003906 3.546875 L 112.003906 29.933594 L 3.480469 29.933594 Z M 3.480469 3.546875 "/></clipPath></defs><g id="011df9115c"><g clip-rule="nonzero" clip-path="url(#d04db3968b)"><path style=" stroke:none;fill-rule:nonzero;fill:#28c8a8;fill-opacity:1;" d="M 186.667969 3.546875 C 85.511719 3.546875 3.480469 85.558594 3.480469 186.734375 C 3.480469 264.351562 51.769531 330.628906 119.914062 357.320312 C 118.300781 342.828125 116.855469 320.589844 120.554688 304.78125 C 123.890625 290.492188 142.023438 213.734375 142.023438 213.734375 C 142.023438 213.734375 136.546875 202.746094 136.546875 186.515625 C 136.546875 161.050781 151.3125 142.035156 169.703125 142.035156 C 185.3125 142.035156 192.859375 153.761719 192.859375 167.828125 C 192.859375 183.546875 182.875 207.03125 177.691406 228.832031 C 173.367188 247.058594 186.851562 261.933594 204.804688 261.933594 C 237.375 261.933594 262.398438 227.605469 262.398438 178.03125 C 262.398438 134.195312 230.890625 103.511719 185.878906 103.511719 C 133.761719 103.511719 103.171875 142.621094 103.171875 183.015625 C 103.171875 198.75 109.234375 215.640625 116.820312 224.800781 C 117.480469 225.507812 117.921875 226.332031 118.148438 227.273438 C 118.371094 228.210938 118.351562 229.148438 118.082031 230.078125 L 112.988281 250.832031 C 112.183594 254.183594 110.332031 254.917969 106.851562 253.285156 C 83.972656 242.644531 69.667969 209.191406 69.667969 182.320312 C 69.667969 124.542969 111.652344 71.453125 190.714844 71.453125 C 254.265625 71.453125 303.652344 116.757812 303.652344 177.261719 C 303.652344 240.410156 263.84375 291.207031 208.578125 291.207031 C 190.019531 291.207031 172.582031 281.589844 166.609375 270.175781 L 155.195312 313.738281 C 151.054688 329.65625 139.898438 349.605469 132.40625 361.753906 C 149.574219 367.066406 167.78125 369.921875 186.667969 369.921875 C 287.824219 369.921875 369.855469 287.910156 369.855469 186.734375 C 369.855469 85.558594 287.824219 3.546875 186.667969 3.546875 Z M 186.667969 3.546875 "/></g></g></svg>