<svg xmlns="http://www.w3.org/2000/svg" xmlns:xlink="http://www.w3.org/1999/xlink" width="500" zoomAndPan="magnify" viewBox="0 0 112.5 30" height="500" preserveAspectRatio="xMidYMid meet" version="1.2"><defs><clipPath id="7fbe959714"><path d="M 3.164062 0.0664062 L 112.003906 0.0664062 L 112.003906 29.933594 L 3.164062 29.933594 Z M 3.164062 0.0664062 "/></clipPath></defs><g id="8b482b6421"><g clip-rule="nonzero" clip-path="url(#7fbe959714)"><path style=" stroke:none;fill-rule:nonzero;fill:#28c8a8;fill-opacity:1;" d="M 349.910156 0.0664062 L 23.421875 0.0664062 C 12.230469 0.0664062 3.164062 9.132812 3.164062 20.324219 L 3.164062 346.832031 C 3.164062 358.007812 12.230469 367.070312 23.421875 367.070312 L 199.21875 367.070312 L 199.21875 224.949219 L 151.359375 224.949219 L 151.359375 169.566406 L 199.179688 169.566406 L 199.179688 128.703125 C 199.179688 81.304688 228.136719 55.484375 270.4375 55.484375 C 290.695312 55.484375 308.089844 56.988281 313.171875 57.667969 L 313.171875 107.214844 L 283.851562 107.214844 C 260.839844 107.214844 256.398438 118.167969 256.398438 134.1875 L 256.398438 169.566406 L 311.246094 169.566406 L 304.089844 224.949219 L 256.378906 224.949219 L 256.378906 367.070312 L 349.929688 367.070312 C 361.085938 367.070312 370.152344 358.007812 370.152344 346.8125 L 370.152344 20.324219 C 370.167969 9.132812 361.105469 0.0664062 349.910156 0.0664062 Z M 349.910156 0.0664062 "/></g></g></svg>