<svg xmlns="http://www.w3.org/2000/svg" xmlns:xlink="http://www.w3.org/1999/xlink" width="500" zoomAndPan="magnify" viewBox="0 0 112.5 30" height="500" preserveAspectRatio="xMidYMid meet" version="1.2"><defs><clipPath id="12ca66cc2b"><path d="M 6 9.230469 L 112.003906 9.230469 L 112.003906 29.933594 L 6 29.933594 Z M 6 9.230469 "/></clipPath></defs><g id="192fb45611"><g clip-rule="nonzero" clip-path="url(#12ca66cc2b)"><path style=" stroke:none;fill-rule:nonzero;fill:#28c8a8;fill-opacity:1;" d="M 188.449219 9.230469 C 87.902344 9.230469 6.363281 90.769531 6.363281 191.316406 C 6.363281 291.882812 87.902344 373.402344 188.449219 373.402344 C 289.011719 373.402344 370.535156 291.882812 370.535156 191.316406 C 370.535156 90.769531 289.011719 9.230469 188.449219 9.230469 Z M 255.835938 265.550781 C 223.9375 267.738281 152.90625 267.738281 121.058594 265.550781 C 86.515625 263.183594 82.492188 246.269531 82.238281 191.316406 C 82.492188 136.253906 86.554688 119.445312 121.058594 117.078125 C 152.90625 114.894531 223.953125 114.894531 255.835938 117.078125 C 290.398438 119.445312 294.402344 136.363281 294.675781 191.316406 C 294.402344 246.378906 290.34375 263.183594 255.835938 265.550781 Z M 158.113281 155.773438 L 232.710938 191.261719 L 158.113281 226.859375 Z M 158.113281 155.773438 "/></g></g></svg>